<svg xmlns="http://www.w3.org/2000/svg" height="399.015" width="399.015"><g transform="translate(82.018 82.208)"><path d="M118.905 130.165s-24.582 29.462-43.322 76.043c-9.156 22.756-10.14 39.635-1.844 47.931 8.296 8.296 29.561 10.223 41.479.922 9.447-7.374 15.947-12.894 22.121-18.435 17.974-16.13 56.227-10.83 60.835-16.361" fill="none" stroke="#000" stroke-width="7.7"/><path d="M143.906 157.587a9.102 9.333 0 0 0-9.101 9.332 9.102 9.333 0 0 0 9.101 9.334 9.102 9.333 0 0 0 9.104-9.334 9.102 9.333 0 0 0-.438-2.82l-9.465 4.386 6.264-9.015a9.102 9.333 0 0 0-5.465-1.883z"/><g stroke-width="7.7" fill="none" stroke="#000"><path d="M134.574 123.252s-2.765 10.6-9.217 8.756c-6.452-1.843-59.453-58.991-63.14-63.139-3.686-4.148 4.148-5.07 8.757-2.304 4.609 2.765 65.444 38.252 66.365 40.556.922 2.305-2.765 16.13-2.765 16.13zM75.468 83.444s10.945-.346 10.715-7.95M111.315 120.358s19.506-10.4 19.275-18.004M98.195 106.916s16.736-6.746 16.506-14.35M86.546 95.03s13.135-4.11 12.905-11.714M66.786 74.061s7.778 1.844 7.547-5.76"/></g><path d="M75.931 205.47s-5.743 10.346 27.7 21.997c19.001 6.62 24.93 8.962 25.256 16.295" fill="none" stroke="#000" stroke-width="7.7"/><path d="M83.59 233.92a2.473 2.536 0 0 1-2.472 2.535 2.473 2.536 0 0 1-2.473-2.536 2.473 2.536 0 0 1 2.473-2.535 2.473 2.536 0 0 1 2.473 2.535z" fill="none" stroke="#000" stroke-width="4.933"/><path d="M198.718 111.039s-14.378-16.451-29.035-13.366c-17.513 3.687-15.105 19.58-11.752 23.735 5.762 7.142 15.67-2.534 15.67-2.534s-.231 7.143-6.222 10.37c-5.992 3.225-15.37 2.714-22.122-7.605-8.138-12.437-2.062-31.541 14.287-38.252 14.25-5.85 39.635-1.614 51.848 14.978" fill="none" stroke="#000" stroke-width="7.7"/><path d="M207.853 93.756s31.42-18.961 21.088 8.624c-3.962 10.577-29.98 54.378-15.13 68.49 16.408 15.593 52.342 14.83 52.342 14.83s-21.73-2.502-26.922-14.906c-4.623-11.048 29.254-81.946 26.016-97.174-4.182-19.673-8.734-33.4-85.389 6.715" fill="none" stroke="#000" stroke-width="7.7"/><path d="M25.348-6.493V4.288c.824-.075 1.657-.12 2.5-.12s1.676.045 2.5.12V-6.493zM2.566 2.942L-.969 6.477l7.643 7.643a27.93 27.93 0 0 1 3.533-3.537zm50.563 0l-7.64 7.64a27.93 27.93 0 0 1 3.533 3.538l7.642-7.643zM-10.404 29.26v5H.377a27.583 27.583 0 0 1-.12-2.5c0-.843.045-1.676.12-2.5zm65.722 0c.075.824.12 1.657.12 2.5s-.045 1.675-.12 2.5H66.1v-5zM6.674 49.397L-.97 57.04l3.535 3.535 7.643-7.643a27.93 27.93 0 0 1-3.535-3.535zm42.348 0a27.93 27.93 0 0 1-3.536 3.535l7.643 7.643 3.535-3.535zm-23.674 9.83v10.784h5V59.227c-.824.075-1.657.122-2.5.122s-1.676-.047-2.5-.122z" style="line-height:normal;font-variant-ligatures:normal;font-variant-position:normal;font-variant-caps:normal;font-variant-numeric:normal;font-variant-alternates:normal;font-feature-settings:normal;text-indent:0;text-align:start;text-decoration-line:none;text-decoration-style:solid;text-decoration-color:#000;text-transform:none;text-orientation:mixed;shape-padding:0;isolation:auto;mix-blend-mode:normal" color="#000" font-weight="400" font-family="sans-serif" white-space="normal" overflow="visible"/><circle cx="31.758" cy="-27.847" r="18.901" transform="rotate(90)" fill="none" stroke="#000" stroke-width="7.7"/></g><circle r="182.008" cy="199.508" cx="199.508" fill="none" stroke="#000" stroke-width="15"/></svg>